<!--?xml version="1.0" encoding="utf-8"?-->
<!-- Generator: Adobe Illustrator 18.1.1, SVG Export Plug-In . SVG Version: 6.00 Build 0)  -->

<svg version="1.1" id="_x32_" xmlns="http://www.w3.org/2000/svg" xmlns:xlink="http://www.w3.org/1999/xlink" x="0px" y="0px" viewBox="0 0 512 512" style="width: 64px; height: 64px; opacity: 1;" xml:space="preserve">
<style type="text/css">
	.st0{fill:#4B4B4B;}
</style>
<g>
	<path class="st0" d="M386.409,243.888c-5.116,1.442-8.044,6.573-6.537,11.455c1.52,4.896,6.878,7.682,11.994,6.246
		c5.116-1.436,8.044-6.573,6.524-11.455C396.882,245.245,391.511,242.453,386.409,243.888z" style="fill: rgb(75, 75, 75);"></path>
	<path class="st0" d="M345.692,252.678c-5.259,0.853-8.798,5.607-7.916,10.63c0.881,5.024,5.87,8.414,11.128,7.568
		c5.259-0.853,8.798-5.614,7.916-10.631C355.924,255.215,350.95,251.833,345.692,252.678z" style="fill: rgb(75, 75, 75);"></path>
	<path class="st0" d="M425.022,229.548c-5.116,1.45-8.044,6.58-6.537,11.469c1.521,4.882,6.893,7.674,11.994,6.232
		c5.117-1.436,8.044-6.566,6.524-11.455C435.497,230.905,430.124,228.12,425.022,229.548z" style="fill: rgb(75, 75, 75);"></path>
	<path class="st0" d="M512,114.353c0.014-8.477-2.104-16.742-5.94-24.451c-3.34-6.758-7.988-13.111-13.673-19.066
		c-9.976-10.432-23.151-19.69-38.912-27.869c-23.635-12.244-53.124-22.071-86.665-28.9C333.27,7.238,295.708,3.436,256,3.436
		c-34.577,0-67.535,2.892-97.607,8.136c-45.138,7.902-83.766,21.005-111.848,38.13c-14.042,8.584-25.496,18.213-33.64,29
		c-4.079,5.408-7.29,11.107-9.508,17.083C1.18,101.755,0,108.007,0,114.353c0,0.832,0.028,1.663,0.071,2.487l-0.057-0.028
		c0,5.727,0.469,12.507,1.464,20.224c1.734,13.487,5.116,29.831,10.616,47.837c8.271,26.989,21.346,57.701,41.044,87.688
		c18.845,28.694,43.83,56.72,76.403,79.957v33.874c0,3.446,1.806,6.637,4.818,8.526c0.725,0.448,10.915,6.716,31.068,12.855
		c20.138,6.154,50.21,12.158,90.572,12.158s70.434-6.005,90.587-12.158c20.139-6.139,30.343-12.406,31.053-12.855
		c3.014-1.89,4.818-5.08,4.818-8.526v-33.854c24.488-17.459,44.668-37.626,61.168-58.745
		c26.264-33.583,43.275-69.511,53.792-101.111c5.258-15.811,8.883-30.542,11.199-43.418c2.33-12.883,3.368-23.876,3.368-32.453
		l-0.043,0.007C511.986,116.002,512,115.177,512,114.353z M361.126,380.38c-4.462,2.131-11.995,5.322-22.754,8.492
		c-18.148,5.365-45.407,10.68-82.372,10.68c-38.145,0-65.957-5.663-84.092-11.191c-9.054-2.764-15.704-5.5-19.982-7.49
		c-0.383-0.171-0.711-0.328-1.051-0.49v-25.34c17.65,5.82,52.328,14.254,105.125,14.248c52.798,0.006,87.475-8.428,105.126-14.248
		V380.38z M479.426,179.153c-7.774,25.432-20.152,54.46-38.628,82.571c-18.476,28.118-43.034,55.313-75.224,77.363
		c-0.384,0.277-0.739,0.568-1.08,0.866c-11.455,4.576-46.886,16.365-108.494,16.372c-38.685,0-67.038-4.661-85.627-9.252
		c-9.294-2.288-16.159-4.576-20.635-6.253c-0.825-0.313-1.549-0.59-2.231-0.868c-0.341-0.298-0.696-0.589-1.08-0.866
		c-24.53-16.799-44.611-36.582-60.969-57.502c-24.516-31.344-40.632-65.268-50.538-95.078c-2.288-6.9-4.25-13.572-5.898-19.939
		c8.371,6.956,18.276,13.352,29.503,19.186c23.635,12.251,53.124,22.064,86.665,28.9c33.526,6.829,71.102,10.63,110.81,10.63
		c34.578,0,67.536-2.885,97.608-8.136c45.137-7.902,83.765-21.006,111.862-38.145c6.41-3.923,12.265-8.065,17.538-12.45
		C481.942,170.633,480.747,174.847,479.426,179.153z M113.511,124.067c11.625,6.835,28.381,14.617,49.116,18.404l0.17-0.874
		c1.137,3.432,2.374,6.885,3.781,10.368c1.791,4.427,3.822,8.889,6.096,13.323c-27.059-4.42-50.282-14.24-67.279-23.464
		c-9.636-5.216-17.253-10.24-22.441-13.935c-0.696-0.498-1.35-0.967-1.962-1.414c3.823-4.001,8.812-7.994,14.937-11.789
		c0.654-0.405,1.336-0.802,2.004-1.208C100.933,115.867,106.22,119.782,113.511,124.067z M110.952,106.735
		c12.038-5.507,26.506-10.389,42.792-14.325c0.554,10.509,2.032,22.845,5.273,36.013c-15.874-3.702-28.993-9.898-38.387-15.42
		C116.736,110.722,113.482,108.548,110.952,106.735z M342.792,154.232c-13.999,8.03-22.626,15.86-26.69,20.018
		c-3.042-2.36-5.927-4.804-8.684-7.306c-4.093-3.724-7.888-7.589-11.398-11.547c4.022-3.311,13.445-10.325,28.751-17.516
		c19.954-9.38,49.912-19.022,91.013-21.105c3.127,2.125,5.969,4.264,8.414,6.452c2.302,2.054,4.263,4.129,5.926,6.204
		C390.246,132.295,361.637,143.41,342.792,154.232z M436.449,142.067c0.284,1.407,0.469,2.814,0.469,4.228
		c0,3.816-0.995,7.568-3.084,11.419c-3.624,6.737-10.801,13.743-21.246,20.209c-8.215,5.102-18.405,9.863-30.144,14.077
		c-6.367,1.62-12.918,3.119-19.684,4.498c-1.208,0.249-2.472,0.461-3.695,0.704c-11.952-4.044-22.526-9.231-31.906-15.193
		c3.866-3.774,11.498-10.354,23.492-17.132C368.672,154.723,396.499,144.135,436.449,142.067z M317.21,126.959
		c-15.008,7.212-24.715,14.241-29.532,18.149c-6.054-8.08-11.042-16.302-15.121-24.175l0.526,0.483l0.057-0.064
		c0.739-0.696,7.646-7.013,22.27-13.466c14.056-6.182,35.26-12.492,65.134-14.012c9.039,2.373,17.495,5.024,25.183,7.93
		c3.142,1.187,6.112,2.41,8.982,3.66C360.884,109.415,335.217,118.297,317.21,126.959z M287.408,97.135
		c-10.005,4.619-16.656,9.174-20.408,12.102c-0.696-1.613-1.364-3.191-1.99-4.733c-3.738-9.294-6.154-17.367-7.618-23.158
		c22.441,0.134,43.915,1.776,63.698,4.64C307.234,89.085,296.064,93.135,287.408,97.135z M262.523,130.74
		c8.286,15.121,19.74,31.273,35.516,45.628c10.289,9.358,22.454,17.935,36.681,24.92c-14.141,2.004-28.908,3.474-44.142,4.384
		c-15.264-8.207-27.585-18.092-37.534-28.85c-16.032-17.318-26.008-36.916-32.204-54.866c-5.102-14.823-7.603-28.508-8.811-38.791
		c10.176-0.888,20.664-1.471,31.408-1.713C245.781,91.429,251.225,110.132,262.523,130.74z M216.022,145.748
		c6.452,13.38,15.136,27.038,26.832,39.672c6.95,7.518,14.979,14.66,24.188,21.169c-3.666,0.072-7.333,0.128-11.043,0.128
		c-11.198,0-22.213-0.342-33-0.945c-9.522-7.49-17.467-15.619-24.061-24.111c-12.933-16.621-20.807-34.62-25.482-51.583
		c-4.122-14.944-5.756-29.07-6.24-40.61c9.92-1.976,20.38-3.624,31.281-4.91C200.318,99.964,204.809,122.447,216.022,145.748z
		 M98.688,153.13c20.138,10.922,48.59,22.718,82.272,26.399c2.189,3.326,4.52,6.638,7.064,9.892
		c3.908,5.024,8.271,9.935,13.075,14.688c-13.544-1.3-26.676-3.042-39.211-5.223c-15.732-2.736-30.556-6.161-44.284-10.133
		c-14.17-5.799-25.525-12.457-33.27-19.378c-4.348-3.88-7.56-7.809-9.65-11.661c-2.09-3.851-3.084-7.603-3.084-11.419
		c0-2.985,0.64-5.934,1.919-8.926C79.089,141.399,87.617,147.126,98.688,153.13z M488.507,130.867
		c-2.388,4.825-5.883,9.693-10.474,14.496c-8.044,8.428-19.499,16.642-33.824,24.075c-1.066,0.547-2.175,1.094-3.27,1.642
		c1.919-2.374,3.582-4.832,4.974-7.39c2.956-5.436,4.619-11.334,4.604-17.395c0.015-6.048-1.648-11.952-4.604-17.389
		c-5.216-9.558-14.197-17.822-25.908-25.119c-14.681-9.103-33.81-16.692-56.194-22.541l-0.014-0.54
		c-0.597,0.021-1.166,0.064-1.748,0.085c-3.894-1.002-7.887-1.947-11.98-2.835c-28.325-6.14-60.998-9.629-95.804-9.629
		c-53.067,0.014-101.104,8.065-136.477,21.382c-17.68,6.694-32.248,14.674-42.736,24.018c-5.244,4.676-9.479,9.728-12.449,15.178
		c-2.956,5.436-4.604,11.341-4.604,17.389c0,6.061,1.648,11.959,4.604,17.395c0.838,1.527,1.804,3.02,2.828,4.476
		c-2.928-1.563-5.756-3.169-8.428-4.803c-12.507-7.625-22.1-15.896-28.339-24.203c-3.127-4.15-5.429-8.293-6.964-12.421
		c-1.506-4.121-2.274-8.208-2.274-12.386c0-5.55,1.336-10.986,4.065-16.507c2.402-4.818,5.884-9.686,10.488-14.496
		c8.03-8.428,19.484-16.636,33.81-24.068c21.488-11.15,49.372-20.536,81.448-27.053c32.076-6.538,68.36-10.233,106.76-10.233
		c33.441,0,65.262,2.807,94.112,7.831c43.276,7.547,79.872,20.209,104.884,35.523c12.521,7.632,22.1,15.911,28.338,24.218
		c3.127,4.142,5.429,8.292,6.964,12.406c1.521,4.122,2.274,8.214,2.274,12.379C492.572,119.91,491.236,125.339,488.507,130.867z" style="fill: rgb(75, 75, 75);"></path>
	<path class="st0" d="M303.923,257.617c-5.302,0.426-9.267,4.882-8.826,9.956c0.44,5.08,5.116,8.853,10.417,8.442
		c5.315-0.426,9.266-4.882,8.84-9.962C313.9,260.978,309.238,257.198,303.923,257.617z" style="fill: rgb(75, 75, 75);"></path>
	<path class="st0" d="M261.755,259.493c-5.329,0.064-9.607,4.242-9.536,9.337c0.057,5.088,4.434,9.174,9.764,9.11
		c5.329-0.058,9.607-4.228,9.536-9.331C271.462,263.522,267.086,259.443,261.755,259.493z" style="fill: rgb(75, 75, 75);"></path>
	<path class="st0" d="M136.392,247.427c-5.188-1.208-10.403,1.826-11.668,6.772c-1.265,4.952,1.904,9.941,7.092,11.149
		c5.188,1.208,10.403-1.826,11.668-6.78C144.749,253.623,141.566,248.635,136.392,247.427z" style="fill: rgb(75, 75, 75);"></path>
	<path class="st0" d="M177.578,254.753c-5.287-0.689-10.148,2.843-10.872,7.895c-0.725,5.046,2.97,9.692,8.257,10.382
		c5.287,0.696,10.147-2.843,10.872-7.888C186.56,260.097,182.865,255.443,177.578,254.753z" style="fill: rgb(75, 75, 75);"></path>
	<path class="st0" d="M219.532,258.591c-5.329-0.292-9.892,3.588-10.19,8.676c-0.313,5.08,3.752,9.451,9.082,9.749
		c5.315,0.291,9.891-3.596,10.19-8.69C228.926,263.245,224.848,258.874,219.532,258.591z" style="fill: rgb(75, 75, 75);"></path>
	<path class="st0" d="M90.459,232.007c-5.173-1.201-10.389,1.826-11.653,6.779c-1.266,4.953,1.904,9.934,7.092,11.156
		c5.173,1.194,10.403-1.834,11.668-6.786C98.816,238.21,95.646,233.221,90.459,232.007z" style="fill: rgb(75, 75, 75);"></path>
	<polygon class="st0" points="59.96,464.194 452.039,464.194 452.039,435.344 59.96,444.234 	" style="fill: rgb(75, 75, 75);"></polygon>
	<polygon class="st0" points="59.96,499.675 452.039,508.564 452.039,479.714 59.96,479.714 	" style="fill: rgb(75, 75, 75);"></polygon>
</g>
</svg>
